Coordinates
version=1
nRows=49
nColumns=12
inDegrees=yes

Units are S.I. units (second, meters, Newtons, ...)
Angles are in degrees

endheader
time	SC_y	SC_z	SC_x	AC_y	AC_z	AC_x	GH_y	GH_z	GH_yy	EL_x	PS_y
       0.0              -49.89          3.671          16.17          47.84         -14.14           -9.7          62.12         0.1276         -96.74          88.64           58.1
   0.03437              -49.89          3.672          16.17          47.84         -14.14         -9.701          62.11         0.1308         -96.73          88.64           58.1
   0.06874              -49.89          3.673          16.18          47.84         -14.14         -9.702          62.11         0.1343         -96.71          88.63           58.1
    0.1031              -49.89          3.675          16.18          47.83         -14.14         -9.703          62.11          0.138         -96.68          88.63          58.11
    0.1375               -49.9          3.676          16.19          47.83         -14.15         -9.704           62.1         0.1419         -96.66          88.62          58.11
    0.1719               -49.9          3.678          16.19          47.83         -14.15         -9.705           62.1         0.1461         -96.64          88.62          58.11
    0.2062               -49.9          3.679           16.2          47.83         -14.15         -9.706           62.1         0.1506         -96.61          88.61          58.11
    0.2406               -49.9          3.681          16.21          47.82         -14.15         -9.707          62.09         0.1553         -96.58          88.61          58.12
     0.275               -49.9          3.683          16.21          47.82         -14.15         -9.709          62.09         0.1604         -96.55           88.6          58.12
    0.3093               -49.9          3.685          16.22          47.81         -14.15          -9.71          62.08         0.1659         -96.52           88.6          58.13
    0.3437               -49.9          3.687          16.23          47.81         -14.15         -9.712          62.08         0.1718         -96.49          88.59          58.13
    0.3781               -49.9          3.689          16.24          47.81         -14.15         -9.713          62.07         0.1782         -96.45          88.58          58.13
    0.4125               -49.9          3.692          16.25           47.8         -14.15         -9.715          62.07          0.185         -96.41          88.57          58.14
    0.4468               -49.9          3.694          16.26           47.8         -14.15         -9.717          62.06         0.1924         -96.37          88.57          58.14
    0.4812              -49.91          3.697          16.27          47.79         -14.15         -9.719          62.05         0.2004         -96.32          88.56          58.15
    0.5156              -49.91            3.7          16.28          47.78         -14.15         -9.721          62.05         0.2091         -96.27          88.55          58.15
    0.5499              -49.91          3.704          16.29          47.78         -14.15         -9.723          62.04         0.2185         -96.22          88.54          58.16
    0.5843              -49.91          3.708           16.3          47.77         -14.15         -9.726          62.03         0.2287         -96.16          88.53          58.17
    0.6187              -49.91          3.712          16.32          47.76         -14.15         -9.729          62.02           0.24         -96.09          88.51          58.18
    0.6531              -49.92          3.716          16.34          47.75         -14.16         -9.732          62.01         0.2522         -96.02           88.5          58.18
    0.6874              -49.92          3.721          16.35          47.74         -14.16         -9.735           62.0         0.2657         -95.94          88.48          58.19
    0.7218              -49.92          3.726          16.37          47.73         -14.16         -9.739          61.99         0.2805         -95.86          88.47           58.2
    0.7562              -49.92          3.732           16.4          47.72         -14.16         -9.743          61.97         0.2969         -95.76          88.45          58.22
    0.7905              -49.93          3.739          16.42          47.71         -14.16         -9.748          61.96          0.315         -95.66          88.43          58.23
    0.8249              -49.93          3.746          16.45          47.69         -14.16         -9.753          61.94         0.3352         -95.54          88.41          58.24
    0.8593              -49.93          3.754          16.48          47.68         -14.17         -9.759          61.92         0.3577         -95.41          88.38          58.26
    0.8937              -49.94          3.763          16.51          47.66         -14.17         -9.765           61.9          0.383         -95.26          88.35          58.28
     0.928              -49.94          3.773          16.55          47.64         -14.17         -9.772          61.88         0.4113          -95.1          88.32          58.29
    0.9624              -49.95          3.785          16.59          47.62         -14.17          -9.78          61.85         0.4434         -94.91          88.29          58.32
    0.9968              -49.96          3.798          16.64          47.59         -14.18          -9.79          61.82         0.4798          -94.7          88.25          58.34
     1.031              -49.96          3.813           16.7          47.56         -14.18           -9.8          61.78         0.5213         -94.46           88.2          58.37
     1.066              -49.97           3.83          16.76          47.53         -14.19         -9.812          61.74          0.569         -94.18          88.15           58.4
       1.1              -49.98           3.85          16.84          47.49         -14.19         -9.826           61.7          0.624         -93.86          88.08          58.44
     1.134              -49.99          3.873          16.92          47.44          -14.2         -9.842          61.64          0.688         -93.49          88.01          58.49
     1.169              -50.01            3.9          17.02          47.39         -14.21         -9.861          61.58         0.7628         -93.06          87.93          58.54
     1.203              -50.02          3.932          17.14          47.32         -14.21         -9.884           61.5          0.851         -92.55          87.83           58.6
     1.237              -50.04           3.97          17.28          47.25         -14.22          -9.91          61.41         0.9558         -91.94          87.71          58.67
     1.272              -50.06          4.015          17.45          47.16         -14.24         -9.942          61.31          1.081         -91.21          87.57          58.76
     1.306              -50.09           4.07          17.66          47.05         -14.25         -9.981          61.18          1.233         -90.33           87.4          58.86
      1.34              -50.12          4.137          17.91          46.92         -14.27         -10.03          61.02          1.419         -89.25          87.19          58.99
     1.375              -50.17           4.22          18.22          46.75         -14.29         -10.09          60.83          1.648         -87.92          86.94          59.15
     1.409              -50.22          4.323           18.6          46.55         -14.32         -10.16          60.58          1.934         -86.26          86.62          59.35
     1.444              -50.28          4.453          19.09          46.29         -14.35         -10.25          60.28          2.294         -84.17          86.22           59.6
     1.478              -50.36          4.618           19.7          45.96          -14.4         -10.37          59.89          2.752         -81.51           85.7          59.91
     1.512              -50.47           4.83          20.49          45.54         -14.45         -10.51          59.39          3.338         -78.11          85.05          60.32
     1.547               -50.6          5.101          21.51           45.0         -14.53          -10.7          58.76           4.09         -73.75          84.21          60.84
     1.581              -50.77          5.447           22.8          44.32         -14.62         -10.95          57.94           5.05         -68.17          83.14           61.5
     1.615              -50.99          5.883          24.42          43.45         -14.74         -11.25          56.92          6.257         -61.17          81.79          62.33
      1.65              -51.25          6.414          26.41           42.4         -14.88         -11.63          55.67          7.729         -52.63          80.14          63.35
